<svg data-v-fde0c5aa="" xmlns="http://www.w3.org/2000/svg" viewBox="0 0 300 300" class="iconLeft"><!----><defs data-v-fde0c5aa=""><!----></defs><rect data-v-fde0c5aa="" fill="#166B77" x="0" y="0" width="300px" height="300px" class="logo-background-square"></rect><defs data-v-fde0c5aa=""><!----></defs><g data-v-fde0c5aa="" id="deb5a09d-85a7-4db2-a253-d9d9bd46f9d1" fill="#E7E7E6" transform="matrix(4.563801649294441,0,0,4.563801649294441,122.99467620737116,108.14993852777954)"><path d="M4.06 10.18L4.06 10.18L4.06 10.18Q3.68 10.18 3.49 10.16L3.49 10.16L3.49 10.16Q2.88 12.80 2.81 13.82L2.81 13.82L2.81 13.82Q2.21 14.11 0.98 14.11L0.98 14.11L0.98 14.11Q0.71 14.11 0.62 14.10L0.62 14.10L0.62 14.10Q0.71 13.27 1.46 9.95L1.46 9.95L1.46 9.95Q2.20 6.62 2.20 5.75L2.20 5.75L2.20 5.75Q2.20 5.59 2.01 5.31L2.01 5.31L2.01 5.31Q1.82 5.04 1.62 4.86L1.62 4.86L1.44 4.68L1.48 4.47L1.48 4.47Q3.84 4.12 5.29 4.12L5.29 4.12L5.29 4.12Q8.18 4.12 8.18 6.47L8.18 6.47L8.18 6.47Q8.18 8.04 7.14 9.11L7.14 9.11L7.14 9.11Q6.10 10.18 4.06 10.18ZM3.70 9.24L3.84 9.24L3.84 9.24Q4.91 9.24 5.47 8.43L5.47 8.43L5.47 8.43Q6.02 7.62 6.02 6.26L6.02 6.26L6.02 6.26Q6.02 5.70 5.81 5.34L5.81 5.34L5.81 5.34Q5.60 4.98 5.19 4.98L5.19 4.98L5.19 4.98Q4.93 4.98 4.54 5.08L4.54 5.08L4.54 5.08Q4.31 6.55 3.70 9.24L3.70 9.24ZM9.58 14.22L9.58 14.22L9.58 14.22Q8.61 14.22 8.06 13.55L8.06 13.55L8.06 13.55Q7.52 12.87 7.52 11.65L7.52 11.65L7.52 11.65Q7.52 10.09 8.35 8.97L8.35 8.97L8.35 8.97Q9.18 7.85 10.65 7.85L10.65 7.85L11.16 7.88L11.16 7.88Q11.40 7.76 11.69 7.76L11.69 7.76L11.69 7.76Q12.80 7.76 12.80 9.84L12.80 9.84L12.80 9.84Q13.37 9.81 13.96 9.69L13.96 9.69L14.18 9.63L14.27 10.18L14.27 10.18Q13.80 10.37 13.02 10.53L13.02 10.53L12.74 10.58L12.74 10.58Q12.47 12.05 11.66 13.14L11.66 13.14L11.66 13.14Q10.85 14.22 9.58 14.22ZM10.33 13.02L10.33 13.02L10.33 13.02Q10.92 13.02 11.39 12.26L11.39 12.26L11.39 12.26Q11.86 11.51 12.04 10.67L12.04 10.67L12.04 10.67Q10.54 10.67 10.54 9.55L10.54 9.55L10.54 9.55Q10.54 9.10 10.72 8.71L10.72 8.71L10.79 8.57L10.79 8.57Q10.74 8.54 10.65 8.54L10.65 8.54L10.65 8.54Q10.57 8.54 10.53 8.57L10.53 8.57L10.53 8.57Q10.18 8.79 9.87 9.62L9.87 9.62L9.87 9.62Q9.56 10.44 9.56 11.51L9.56 11.51L9.56 11.51Q9.56 13.02 10.33 13.02ZM13.47 14.10L13.47 14.10L13.20 14.10L13.20 14.10Q13.20 13.44 13.60 11.58L13.60 11.58L13.60 11.58Q14 9.72 14 9.46L14 9.46L14 9.46Q14 9.00 13.61 8.48L13.61 8.48L13.48 8.32L13.50 8.13L13.50 8.13Q14.25 7.92 15.92 7.92L15.92 7.92L15.92 7.92Q16.11 8.19 16.11 8.79L16.11 8.79L16.11 8.79Q17.37 7.85 18.12 7.85L18.12 7.85L18.12 7.85Q19.05 7.85 19.22 8.82L19.22 8.82L19.22 8.82Q19.60 8.51 20.21 8.18L20.21 8.18L20.21 8.18Q20.82 7.85 21.30 7.85L21.30 7.85L21.30 7.85Q21.78 7.85 22.11 8.17L22.11 8.17L22.11 8.17Q22.43 8.48 22.43 9.04L22.43 9.04L22.43 9.04Q22.43 9.60 22.12 10.89L22.12 10.89L22.12 10.89Q21.81 12.18 21.81 12.62L21.81 12.62L21.81 12.62Q21.81 13.06 21.94 13.06L21.94 13.06L21.94 13.06Q22.02 13.06 22.51 12.80L22.51 12.80L22.67 12.71L22.92 13.20L22.92 13.20Q22.55 13.57 21.93 13.90L21.93 13.90L21.93 13.90Q21.31 14.22 20.83 14.22L20.83 14.22L20.83 14.22Q19.78 14.22 19.78 13.03L19.78 13.03L19.78 13.03Q19.78 12.60 20.08 11.29L20.08 11.29L20.08 11.29Q20.38 9.98 20.38 9.58L20.38 9.58L20.38 9.58Q20.38 9.18 20.15 9.18L20.15 9.18L20.15 9.18Q19.74 9.18 19.22 9.49L19.22 9.49L19.22 9.49Q19.19 9.77 18.84 11.40L18.84 11.40L18.84 11.40Q18.48 13.02 18.48 13.92L18.48 13.92L18.48 13.92Q18.07 14.10 16.58 14.10L16.58 14.10L16.58 14.10Q16.55 13.94 16.55 13.36L16.55 13.36L16.55 13.36Q16.55 12.77 16.88 11.35L16.88 11.35L16.88 11.35Q17.21 9.94 17.21 9.56L17.21 9.56L17.21 9.56Q17.21 9.18 16.94 9.18L16.94 9.18L16.94 9.18Q16.52 9.18 16.02 9.52L16.02 9.52L16.02 9.52Q15.99 9.65 15.74 10.75L15.74 10.75L15.74 10.75Q15.23 12.96 15.23 13.90L15.23 13.90L15.23 13.90Q14.74 14.10 13.47 14.10ZM25.33 14.22L25.33 14.22L25.33 14.22Q24.36 14.22 23.81 13.55L23.81 13.55L23.81 13.55Q23.27 12.87 23.27 11.65L23.27 11.65L23.27 11.65Q23.27 10.09 24.10 8.97L24.10 8.97L24.10 8.97Q24.93 7.85 26.40 7.85L26.40 7.85L26.91 7.88L26.91 7.88Q27.15 7.76 27.44 7.76L27.44 7.76L27.44 7.76Q28.55 7.76 28.55 9.84L28.55 9.84L28.55 9.84Q29.12 9.81 29.71 9.69L29.71 9.69L29.93 9.63L30.02 10.18L30.02 10.18Q29.55 10.37 28.77 10.53L28.77 10.53L28.49 10.58L28.49 10.58Q28.22 12.05 27.41 13.14L27.41 13.14L27.41 13.14Q26.60 14.22 25.33 14.22ZM26.08 13.02L26.08 13.02L26.08 13.02Q26.67 13.02 27.14 12.26L27.14 12.26L27.14 12.26Q27.61 11.51 27.79 10.67L27.79 10.67L27.79 10.67Q26.29 10.67 26.29 9.55L26.29 9.55L26.29 9.55Q26.29 9.10 26.47 8.71L26.47 8.71L26.54 8.57L26.54 8.57Q26.49 8.54 26.40 8.54L26.40 8.54L26.40 8.54Q26.32 8.54 26.28 8.57L26.28 8.57L26.28 8.57Q25.93 8.79 25.62 9.62L25.62 9.62L25.62 9.62Q25.31 10.44 25.31 11.51L25.31 11.51L25.31 11.51Q25.31 13.02 26.08 13.02Z"></path></g><defs data-v-fde0c5aa=""><!----></defs><g data-v-fde0c5aa="" id="21dcd258-e844-418a-8752-c7bc8e94f236" stroke="none" fill="#B53940" transform="matrix(0.7282430548039215,0,0,0.7282430548039215,39.99994469990421,113.58820284723303)"><path d="M46.016 7.521s1.577 7.043-.093 13.455c-1.675 6.414-.991 12.127 4.448 12.127 5.422 0 5.833-6.878 5.046-13.572s-1.914-11.067-2.52-12.642c-1.039-2.718-7.247-2.561-6.881.632zM41.779 19.088c.01-.051.029-.107.039-.159-.889-.349-1.826-.72-2.832-1.106C28.547 13.822 16.33 15.87 16.33 15.87c9.844-.315 19.209 8.467 23.311 12.266.425.396.918.801 1.47 1.194-.568-2.883-.353-6.335.668-10.242zM59.924 18.939c.615 5.647.239 9.891-1.167 13.013.439-.212.884-.444 1.318-.706C69.113 25.78 73.552 2.528 73.552 2.528c-3.33 6.844-8.794 12.322-13.628 16.411z"></path><path d="M99.227 41.858c-1.616-6.97-7.334-18.289-19.819-20.687-5.02-.852-7.28 2.889-8.003 4.178-2.5 4.521-5.239 6.633-8.271 8.462-3.325 2.017-7.041 2.537-11.03 2.537-11.104 0-15.747-5.325-17.739-6.965-1.997-1.641-5.635-3.85-9.775-5.313-1.245-.442-6.421-1.822-9.897-.293C7.977 26.738 3.146 34.688 1.154 41.858-1.15 50.144-1.8 71.341 17.083 86.321c18.887 14.99 48.882 14.512 66.509.693 17.612-13.823 17.387-37.593 15.635-45.156z"></path></g><!----></svg>